<?xml version="1.0" encoding="UTF-8"?>
<svg width="24px" height="24px" viewBox="0 0 24 24" version="1.1" xmlns="http://www.w3.org/2000/svg" xmlns:xlink="http://www.w3.org/1999/xlink">
    <!-- Generator: Sketch 50.2 (55047) - http://www.bohemiancoding.com/sketch -->
    <title>upload</title>
    <desc>Created with Sketch.</desc>
    <defs></defs>
    <g id="upload" stroke="none" stroke-width="1" fill="none" fill-rule="evenodd">
        <g id="Group-2" fill="#959595">
            <path d="M13,9.08816185 L13,14 C13,14.5522847 12.5522847,15 12,15 C11.4477153,15 11,14.5522847 11,14 L11,9.07933812 L9.39425856,10.7491758 C9.23555732,10.9163885 9.04426846,11 8.8204217,11 C8.59653534,11 8.40524649,10.9163885 8.24654524,10.7491758 C8.08217185,10.5819631 8,10.3819046 8,10.1489688 C8,9.91607481 8.08217185,9.71601625 8.24654524,9.5488036 L11.4261433,6.21635791 C11.4941596,6.13274637 11.5791526,6.07452286 11.6812017,6.04168739 C11.7832112,6.00884149 11.8909028,5.99539647 12.0042764,6.00138362 C12.1176104,6.00733948 12.2295585,6.03271709 12.3400713,6.0775373 C12.450584,6.12231578 12.5455157,6.18652644 12.6248565,6.27013799 L15.7534548,9.5488036 C15.9178282,9.71601625 16,9.91607481 16,10.1489688 C16,10.3819046 15.9178282,10.5819631 15.7534548,10.7491758 C15.6741041,10.8327873 15.5848644,10.8954856 15.4856761,10.9372913 C15.3864977,10.9790971 15.2844486,11 15.1796179,11 C15.0747476,11 14.9713126,10.9790971 14.869313,10.9372913 C14.7672639,10.8954856 14.6765888,10.8327873 14.5972382,10.7491758 L13,9.08816185 Z M8,16 L16,16 C16.5522847,16 17,16.4477153 17,17 C17,17.5522847 16.5522847,18 16,18 L8,18 C7.44771525,18 7,17.5522847 7,17 C7,16.4477153 7.44771525,16 8,16 Z" id="Combined-Shape"></path>
        </g>
    </g>
</svg>