<?xml version="1.0" standalone="no"?><!DOCTYPE svg PUBLIC "-//W3C//DTD SVG 1.1//EN" "http://www.w3.org/Graphics/SVG/1.1/DTD/svg11.dtd"><svg t="1561444919852" class="icon" viewBox="0 0 1024 1024" version="1.1" xmlns="http://www.w3.org/2000/svg" p-id="2218" width="128" height="128" xmlns:xlink="http://www.w3.org/1999/xlink"><defs><style type="text/css"></style></defs><path d="M469.591919 972.282828c-10.343434-10.343434-16.549495-24.824242-16.549495-41.373737V93.090909c0-33.09899 24.824242-57.923232 57.923233-57.923232s57.923232 24.824242 57.923232 57.923232v837.818182c0 33.09899-24.824242 57.923232-57.923232 57.923232-16.549495 2.068687-31.030303-4.137374-41.373738-16.549495z" p-id="2219"></path><path d="M51.717172 554.408081c-10.343434-10.343434-16.549495-24.824242-16.549495-41.373738 0-33.09899 24.824242-57.923232 57.923232-57.923232h837.818182c33.09899 0 57.923232 24.824242 57.923232 57.923232 0 33.09899-24.824242 57.923232-57.923232 57.923233h-837.818182c-16.549495 0-31.030303-6.206061-41.373737-16.549495z" p-id="2220"></path></svg>
