<?xml version="1.0" standalone="no"?><!DOCTYPE svg PUBLIC "-//W3C//DTD SVG 1.1//EN" "http://www.w3.org/Graphics/SVG/1.1/DTD/svg11.dtd"><svg t="1559815316984" class="icon" style="" viewBox="0 0 1024 1024" version="1.1" xmlns="http://www.w3.org/2000/svg" p-id="5157" xmlns:xlink="http://www.w3.org/1999/xlink" width="64" height="64"><defs><style type="text/css"></style></defs><path d="M672.587093 1019.521707c-64.57344 0-116.913493-52.3264-116.913493-116.89984v-229.946027c0-64.607573 52.30592-117.02272 116.913493-117.121707h230.15424a123.368107 123.368107 0 0 1 90.32704 40.574294 101.553493 101.553493 0 0 1 27.200854 77.54752v229.946026c0 64.576853-52.340053 116.933973-116.913494 116.933974l-230.76864-1.03424z m-546.587306 0c-64.57344 0-116.913493-52.3264-116.913494-116.89984v-229.946027c0-64.607573 52.309333-117.02272 116.913494-117.121707h230.167893c64.512 0.09216 116.794027 52.38784 116.89984 116.89984v230.167894c0 64.57344-52.340053 116.89984-116.89984 116.89984H125.999787z m546.587306-552.256854c-64.525653-0.126293-116.80768-52.38784-116.913493-116.89984V120.384853c0.105813-64.505173 52.38784-116.773547 116.913493-116.89984h230.15424a123.436373 123.436373 0 0 1 90.32704 39.574187 101.50912 101.50912 0 0 1 27.200854 77.54752V350.549333c-0.105813 64.512-52.38784 116.811093-116.913494 116.89984l-230.76864-0.18432z m-552.27392 0C55.79776 467.135147 3.52256 414.877013 3.413333 350.365013V120.384853C4.273493 54.934187 58.057387 2.577067 123.511467 3.454293c0.559787 0 1.109333 0.03072 1.672533 0.03072h230.980267a113.5616 113.5616 0 0 1 84.015786 36.532907 104.055467 104.055467 0 0 1 27.19744 81.18272V350.549333c-0.105813 64.508587-52.38784 116.80768-116.89984 116.89984l-230.16448-0.18432z" p-id="5158"></path></svg>