<?xml version="1.0" standalone="no"?><!DOCTYPE svg PUBLIC "-//W3C//DTD SVG 1.1//EN" "http://www.w3.org/Graphics/SVG/1.1/DTD/svg11.dtd"><svg t="1559815004364" class="icon" style="" viewBox="0 0 1024 1024" version="1.1" xmlns="http://www.w3.org/2000/svg" p-id="2553" xmlns:xlink="http://www.w3.org/1999/xlink" width="64" height="64"><defs><style type="text/css"></style></defs><path d="M137.216 194.048c0-26.624 20.992-48.64 47.104-48.64h234.496v-48.64c0-26.624 20.992-48.64 47.104-48.64h93.696c25.6 0 47.104 21.504 47.104 48.64v48.64h234.496c26.112 0 47.104 21.504 47.104 48.64v48.64H137.216v-48.64z m702.976 145.408V937.472c0 26.624-20.992 48.64-47.104 48.64H230.912c-26.112 0-47.104-21.504-47.104-48.64V290.816h656.384v48.64zM371.2 436.224c0-26.624-20.992-48.64-47.104-48.64s-47.104 21.504-47.104 48.64v403.968c0 26.624 20.992 48.64 47.104 48.64 25.6 0 47.104-21.504 47.104-48.64V436.224z m187.904 0c0-26.624-20.992-48.64-47.104-48.64s-47.104 21.504-47.104 48.64v403.968c0 26.624 20.992 48.64 47.104 48.64s47.104-21.504 47.104-48.64V436.224z m187.392 0c0-26.624-20.992-48.64-47.104-48.64s-47.104 21.504-47.104 48.64v403.968c0 26.624 20.992 48.64 47.104 48.64s47.104-21.504 47.104-48.64V436.224z" fill="" p-id="2554"></path></svg>