<?xml version="1.0" standalone="no"?><!DOCTYPE svg PUBLIC "-//W3C//DTD SVG 1.1//EN" "http://www.w3.org/Graphics/SVG/1.1/DTD/svg11.dtd"><svg t="1561606361021" class="icon" viewBox="0 0 1025 1024" version="1.1" xmlns="http://www.w3.org/2000/svg" p-id="2029" xmlns:xlink="http://www.w3.org/1999/xlink" width="128.125" height="128"><defs><style type="text/css"></style></defs><path d="M1018.88 619.52c-33.28-289.28-92.16-496.64-279.04-496.64-94.72 0-143.36 92.16-227.84 99.84C424.96 215.04 378.88 122.88 284.16 122.88c-186.88 0-245.76 207.36-276.48 494.08-17.92 153.6-2.56 281.6 92.16 281.6 133.12 0 138.24-110.08 232.96-166.4 35.84-17.92 115.2-25.6 181.76-28.16 66.56 2.56 145.92 10.24 181.76 28.16 94.72 56.32 99.84 166.4 232.96 166.4 92.16 2.56 104.96-125.44 89.6-279.04z m-732.16-25.6c-74.24 0-133.12-61.44-133.12-133.12s58.88-133.12 133.12-133.12 133.12 58.88 133.12 133.12-61.44 133.12-133.12 133.12z m596.48-107.52H778.24v104.96h-51.2V486.4h-104.96V435.2H727.04V332.8h51.2v102.4h104.96v51.2z" p-id="2030"></path><path d="M209.92 460.8c0 20.48 7.68 38.4 23.04 53.76C245.76 527.36 266.24 537.6 286.72 537.6s38.4-7.68 53.76-23.04C353.28 501.76 363.52 481.28 363.52 460.8s-7.68-38.4-23.04-53.76C327.68 394.24 307.2 384 286.72 384s-38.4 7.68-53.76 23.04C217.6 419.84 209.92 440.32 209.92 460.8z" p-id="2031"></path></svg>