<?xml version="1.0" standalone="no"?><!DOCTYPE svg PUBLIC "-//W3C//DTD SVG 1.1//EN" "http://www.w3.org/Graphics/SVG/1.1/DTD/svg11.dtd"><svg t="1561713497024" class="icon" viewBox="0 0 1024 1024" version="1.1" xmlns="http://www.w3.org/2000/svg" p-id="2822" xmlns:xlink="http://www.w3.org/1999/xlink" width="128" height="128"><defs><style type="text/css"></style></defs><path d="M992 224H32C12.8 224 0 211.2 0 192s12.8-32 32-32h960c19.2 0 32 12.8 32 32s-12.8 32-32 32z m0 320H32C12.8 544 0 531.2 0 512s12.8-32 32-32h960c19.2 0 32 12.8 32 32s-12.8 32-32 32z m0 320H32c-19.2 0-32-12.8-32-32s12.8-32 32-32h960c19.2 0 32 12.8 32 32s-12.8 32-32 32z" p-id="2823"></path></svg>