<?xml version="1.0" standalone="no"?><!DOCTYPE svg PUBLIC "-//W3C//DTD SVG 1.1//EN" "http://www.w3.org/Graphics/SVG/1.1/DTD/svg11.dtd"><svg t="1559717446402" class="icon" style="" viewBox="0 0 1280 1024" version="1.1" xmlns="http://www.w3.org/2000/svg" p-id="3915" xmlns:xlink="http://www.w3.org/1999/xlink" width="80" height="64"><defs><style type="text/css"></style></defs><path d="M640 768H256V448H128v512c0 35.4 28.6 64 64 64h512c35.4 0 64-28.6 64-64V448h-128v320z m629.2-483.6l-170.6-256c-12-17.8-32-28.4-53.4-28.4H234.8c-21.4 0-41.4 10.6-53.2 28.4l-170.6 256c-28.4 42.6 2 99.6 53.2 99.6H1216c51 0 81.4-57 53.2-99.6zM1024 992c0 17.6 14.4 32 32 32h64c17.6 0 32-14.4 32-32V448h-128v544z" fill="" p-id="3916"></path></svg>