<?xml version="1.0" standalone="no"?><!DOCTYPE svg PUBLIC "-//W3C//DTD SVG 1.1//EN" "http://www.w3.org/Graphics/SVG/1.1/DTD/svg11.dtd"><svg t="1561026523881" class="icon" viewBox="0 0 1024 1024" version="1.1" xmlns="http://www.w3.org/2000/svg" p-id="2192" xmlns:xlink="http://www.w3.org/1999/xlink" width="64" height="64"><defs><style type="text/css"></style></defs><path d="M726.573973 0.207976c-12.469939 0.957462-21.931327 5.823605-29.209757 14.596995L495.779762 247.059742l-132.17419-162.133578c-7.305664-8.779124-16.739818-13.645267-29.219791-14.591263-10.878947-1.019095-20.632733 2.111289-29.949355 9.484321-8.218693 7.262665-14.321797 15.117293-15.335159 26.287205-1.053495 10.32425 1.685592 20.436368 9.495788 29.221224L426.409633 293.79908c0.464398-0.083133 0.963195 0 1.43906 0l67.931069 0 67.915303 0c0.531764 0 0.273765-0.083133 0.739596 0l197.910837-228.581154c7.848895-8.802057 10.565049-18.891242 9.511554-29.215491-1.029128-11.192846-6.394069-19.008774-14.607029-26.304405C747.910469 2.340766 737.45722-0.799653 726.573973 0.207976L726.573973 0.207976zM726.573973 0.207976M126.619392 334.38085C77.489264 335.494545 45.485953 371.730468 45.485953 415.502823l0 527.375234c0 70.647223 34.141834 81.121972 81.133439 81.121972l770.77125 0c47.020271 0 81.123405-33.974134 81.123405-81.121972L978.514047 415.502823c0-47.147838-34.103134-81.121972-81.123405-81.121972L126.619392 334.38085 126.619392 334.38085zM207.754264 456.073125l446.228896 0c32.13231 0 40.576036 9.859852 40.576036 40.570302l0 365.089724c-2.833686 24.898313-11.607077 40.557403-40.576036 40.557403L207.754264 902.290554c-32.165277 0-40.570302-9.831186-40.570302-40.557403L167.18396 496.637694C167.18396 465.932977 175.588986 456.073125 207.754264 456.073125L207.754264 456.073125zM836.531604 456.073125c16.779952 0.0172 30.406586 5.683139 41.84023 17.105316 12.507205 12.541606 19.014508 26.963735 19.014508 43.732221 0 16.853051-6.511602 31.298114-19.014508 43.117323-10.671114 11.460878-23.884951 17.026484-39.931039 17.74888l-2.536987 0c-16.779952-0.722397-31.376948-6.288002-43.11159-17.74888-11.736076-11.830676-17.11535-26.264272-17.11535-43.117323 0-16.768485 5.379274-31.190615 17.11535-43.732221C804.890925 461.756264 819.76742 456.073125 836.531604 456.073125L836.531604 456.073125zM836.531604 658.894538c16.818651 0 30.664585 5.352041 42.47806 17.11535 12.127375 12.111608 18.380977 26.947969 18.380977 43.727921 0 16.729785-6.253603 30.754883-18.380977 42.479494-11.813476 12.210508-25.659408 18.386711-42.47806 18.386711-16.831552 0-31.180581-6.176203-43.739387-18.386711-11.466611-11.763309-17.11535-25.749708-17.11535-42.479494 0-16.779952 5.648739-31.600546 17.11535-43.727921C805.356756 664.225079 819.700054 658.894538 836.531604 658.894538L836.531604 658.894538zM836.531604 658.894538" p-id="2193"></path></svg>