<svg height="512pt" viewBox="0 0 512 512" width="512pt" xmlns="http://www.w3.org/2000/svg"><path d="m492 511.96875h-472c-11.046875 0-20-8.953125-20-20 0-11.042969 8.953125-20 20-20h472c11.046875 0 20 8.957031 20 20 0 11.046875-8.953125 20-20 20zm-88.847656-360.871094c7.804687-7.816406 7.792968-20.480468-.023438-28.28125l-105.453125-105.273437c-23.394531-23.394531-61.457031-23.394531-84.875.019531l-103.964843 104.285156c-7.800782 7.824219-7.777344 20.488282.042968 28.285156 7.824219 7.796876 20.484375 7.78125 28.285156-.042968l103.945313-104.261719c3.777344-3.777344 8.796875-5.859375 14.140625-5.859375s10.363281 2.082031 14.152344 5.871094l105.46875 105.285156c3.902344 3.894531 9.015625 5.84375 14.128906 5.84375 5.125 0 10.246094-1.957031 14.152344-5.871094zm-128.152344 250.871094v-282c0-11.042969-8.953125-20-20-20s-20 8.957031-20 20v282c0 11.046875 8.953125 20 20 20s20-8.953125 20-20zm0 0"/></svg>